<svg data-v-0dd9719b="" version="1.0" xmlns="http://www.w3.org/2000/svg" xmlns:xlink="http://www.w3.org/1999/xlink" width="100%" height="100%" viewBox="0 0 340.000000 250.000000" preserveAspectRatio="xMidYMid meet" color-interpolation-filters="sRGB" style="margin: auto;"> <rect data-v-0dd9719b="" x="0" y="0" width="100%" height="100%" fill="#fff" fill-opacity="1" class="background"></rect> <rect data-v-0dd9719b="" x="0" y="0" width="100%" height="100%" fill="url(#watermark)" fill-opacity="1" class="watermarklayer"></rect> <g data-v-0dd9719b="" fill="#333" class="icon-text-wrapper icon-svg-group iconsvg" transform="translate(48.209999084472656,91.58758926391602)"><g class="iconsvg-imagesvg" transform="translate(0,0)"><g><rect fill="#333" fill-opacity="0" stroke-width="2" x="0" y="0" width="60" height="66.82481873767918" class="image-rect"></rect> <svg x="0" y="0" width="60" height="66.82481873767918" filtersec="colorsb860440048" class="image-svg-svg primary" style="overflow: visible;"><svg xmlns="http://www.w3.org/2000/svg" viewBox="0 -0.0028373277746140957 89.81000518798828 100.02556610107422"><title>资源 134</title><path d="M64.35 47.87c-.58 0-1.17 0-1.74.05.34.73.66 1.46 1 2.2a64.86 64.86 0 0 1 5.14 25.46 65.77 65.77 0 0 1-1.34 13.26L84.44 79a11.89 11.89 0 0 0 5.37-9.28v-10a33.48 33.48 0 0 0-25.46-11.85zM21.49 69a9.3 9.3 0 0 1 9.3-9.31 9.07 9.07 0 0 1 1.66.15 39.44 39.44 0 0 1 4.73-5.73 38.15 38.15 0 0 1 15.09-9.32 58 58 0 0 0-41.94-26.64L5.38 21A11.9 11.9 0 0 0 0 30.28v39.44A11.9 11.9 0 0 0 5.38 79l22 12.68a38.86 38.86 0 0 1-1.19-14.63 9.3 9.3 0 0 1-4.7-8.05z" fill="#275cde"></path><path d="M84.44 21L50.28 1.28a11.86 11.86 0 0 0-10.73 0L20.29 12.4a64 64 0 0 1 8.49 2.92 65.23 65.23 0 0 1 20.79 14 65.61 65.61 0 0 1 10.52 13.76 37.62 37.62 0 0 1 4.26-.24 38.33 38.33 0 0 1 25.46 9.64v-22.2A11.92 11.92 0 0 0 84.44 21z" fill="#0a2183"></path><path d="M37 62.08a9.31 9.31 0 0 1-5.95 16.2c-.08 1-.13 2-.13 3a33.2 33.2 0 0 0 3.26 14.39l5.33 3.07a11.84 11.84 0 0 0 10.72 0l7.87-4.54a57.76 57.76 0 0 0-3.27-44.94A33.46 33.46 0 0 0 37 62.08z" fill="#01cfff"></path></svg></svg> <!----></g></g> <g transform="translate(67,12.402412414550781)"><g data-gra="path-name" fill-rule="" class="tp-name iconsvg-namesvg"><g transform="scale(1)"><g><path d="M42.7-20.93L39.73-20.93 39.73-26.41 28.62-26.41 28.62-28.26 42.12-28.26 42.12-34.38 28.53-34.38C28.35-35.14 28.08-36 27.86-36.67L19.84-36.67 20.56-34.38 4.68-34.38 4.68-17.5C4.68-8.87 3.19-3.06 0.94 2.07L7.88 5.17C10.39-0.9 11.47-5.35 11.61-16.02L21.6-15.97 21.6-13.95 12.96-13.95 12.96-9.95 21.6-9.95 21.6-8.14 12.82-8.14 12.82 4.41 39.42 4.41 39.42-8.14 28.62-8.14 28.62-9.95 39.73-9.95 39.73-15.25 42.7-15.25ZM11.61-20.2L11.61-28.26 21.6-28.26 21.6-26.41 13.05-26.41 13.05-21.96 21.6-21.96 21.6-20.2ZM32.8-21.96L32.8-19.93 28.62-19.93 28.62-21.96ZM28.62-13.95L28.62-16.25 32.8-16.29 32.8-13.95ZM32.4-0.63L19.89-0.63 19.89-3.73 32.4-3.73ZM78.3-29.47L78.3-3.1 70.6-3.1 70.6-36.54 63-36.72 63-3.1 55.48-3.1 55.48-29.29 48.02-29.47 48.02 4.5 85.59 4.5 85.59-29.29ZM115.69-1.71L115.69-3.73 128.61-3.73 128.61-8.87 115.69-8.87 115.69-10.84 129.64-10.84 129.64-16.7 115.69-16.7 115.69-19.08 128.52-19.08 128.52-35.95 94.68-35.95 94.68-19.08 97.06-19.08C95.63-16.43 93.33-13.18 91.17-11.03L94.86-8.37 94.86-3.73 108.09-3.73 108.09-1.71 90.81-1.71 90.81 4.32 131.85 4.32 131.85-1.71ZM121.27-30.96L121.27-29.02 101.79-29.02 101.79-30.96ZM101.79-23.54L101.79-25.38 121.27-25.38 121.27-23.54ZM108.09-19.08L108.09-16.7 103.18-16.7 103.81-17.82 100.71-19.08ZM97.92-8.87L99.41-10.84 108.09-10.84 108.09-8.87ZM167.17-2.75L174.28-2.75 174.28-7.42 167.17-7.42 167.17-9.36 175-9.36 175-14.4 167.17-14.4 167.17-15.84 160.29-15.84 160.29-14.4 157.27-14.4 157.45-15.25 151.38-15.48C151.15-14.35 150.79-13.05 150.3-11.79 149.89-13.72 149.26-15.79 148.18-18.31L148.86-21.6 150.34-18.27 152.46-18.72 152.46-16.29 173.56-16.29 173.56-18.9 175.68-18.4 177.52-23.89C174.69-24.21 172.08-24.66 169.74-25.24 171.63-26.55 173.25-28.04 174.55-29.74L174.55-34.83 163.17-34.83C163.71-35.41 164.11-36 164.52-36.54L157.09-36.85C155.29-34.74 153.22-33.07 150.34-31.32L150.34-35.77 136.75-35.77 136.75 5.13 142.38 5.13 142.38-5.94 144.13 0.94 145.8 0.72C147.42 0.49 148.54 0.22 149.4-0.67L149.4 4.09 175.9 4.09 175.9-1.03 167.17-1.03ZM163.08-27.45C161.32-28.26 159.88-29.2 158.76-30.33L168.07-30.33C166.81-29.34 165.15-28.39 163.08-27.45ZM144.99-9.36C144.99-7.2 144.72-6.71 143.95-6.66L142.38-6.48 142.38-28.93 145.21-28.93 143.01-16.96C144.58-13.68 144.94-11.34 144.99-9.36ZM154.26-27.45C155.02-26.68 155.92-25.96 156.96-25.29 154.57-24.61 152.05-24.07 149.31-23.67L150.3-28.35 152.1-26.19ZM156.96-19.84C159.34-20.52 161.5-21.15 163.44-22 165.37-21.24 167.49-20.52 170.01-19.84ZM160.29-9.36L160.29-7.42 155.07-7.42C155.38-8.1 155.61-8.69 155.83-9.36ZM152.41-6.17L152.41-2.75 160.29-2.75 160.29-1.03 149.71-1.03C150.39-2.07 150.7-3.78 150.75-6.66Z" transform="translate(-0.940000057220459, 36.849998474121094)"></path></g> <!----> <!----> <!----> <!----> <!----> <!----> <!----></g></g> <!----></g></g><defs v-gra="od"></defs></svg>